HIERARCHY
ROOT Hips
{
  OFFSET 0 0 0
  CHANNELS 6 Xposition Yposition Zposition Zrotation Yrotation Xrotation
  JOINT LeftThigh
  {
    OFFSET 8.409438 0 -5.917753
    CHANNELS 3 Zrotation Yrotation Xrotation
    JOINT LeftLeg
    {
      OFFSET 0 0 -42.358652
      CHANNELS 3 Zrotation Yrotation Xrotation
      JOINT LeftFoot
      {
        OFFSET 0 0 -39.357303
        CHANNELS 3 Zrotation Yrotation Xrotation
      }
    }
  }
  JOINT RightThigh
  {
    OFFSET -8.409438 0 -5.917753
    CHANNELS 3 Zrotation Yrotation Xrotation
    JOINT RightLeg
    {
      OFFSET 0 0 -42.358652
      CHANNELS 3 Zrotation Yrotation Xrotation
      JOINT RightFoot
      {
        OFFSET 0 0 -39.357303
        CHANNELS 3 Zrotation Yrotation Xrotation
      }
    }
  }
  JOINT SpineLow
  {
    OFFSET 0 0 4.719101
    CHANNELS 3 Zrotation Yrotation Xrotation
    JOINT SpineMid
    {
      OFFSET 0 0 12.899191
      CHANNELS 3 Zrotation Yrotation Xrotation
      JOINT Chest
      {
        OFFSET 0 0 12.899191
        CHANNELS 3 Zrotation Yrotation Xrotation
        JOINT LeftShoulder
        {
          OFFSET 7.550562 1.41573 9.438202
          CHANNELS 3 Zrotation Yrotation Xrotation
          JOINT LeftArm
          {
            OFFSET 9.155056 0 4.247191
            CHANNELS 3 Zrotation Yrotation Xrotation
            JOINT LeftForearm
            {
              OFFSET 0 0 25.771955
              CHANNELS 3 Zrotation Yrotation Xrotation
              JOINT LeftHand
              {
                OFFSET 0 0 25.197169
                CHANNELS 3 Zrotation Yrotation Xrotation
              }
            }
          }
        }
        JOINT RightShoulder
        {
          OFFSET -7.550562 1.41573 9.438202
          CHANNELS 3 Zrotation Yrotation Xrotation
          JOINT RightArm
          {
            OFFSET -9.155056 0 4.247191
            CHANNELS 3 Zrotation Yrotation Xrotation
            JOINT RightForearm
            {
              OFFSET 0 0 -25.771955
              CHANNELS 3 Zrotation Yrotation Xrotation
              JOINT RightHand
              {
                OFFSET 0 0 -25.197169
                CHANNELS 3 Zrotation Yrotation Xrotation
              }
            }
          }
        }
        JOINT Neck
        {
          OFFSET 0 0 15.101124
          CHANNELS 3 Zrotation Yrotation Xrotation
          JOINT Head
          {
            OFFSET 0 0 11.325843
            CHANNELS 3 Zrotation Yrotation Xrotation
            End Site
            {
              OFFSET 0 0 14.157303
            }
          }
        }
      }
    }
  }
}
MOTION
Frames: 16
Frame Time: 0.0
0.0  89.887642  0.0  -1.616787  42.16135  -95.22527  -15.556703  -9.931426  -7.492233  -13.050626  4.779125  25.101849  5.393467  1.722991  4.29904  -35.458711  15.935179  7.657427  -12.026697  5.983049  6.552012  3.584155  1.056146  -0.447858  2.895498  -1.573009  0.166904  7.914004  -4.312538  0.267449  7.914003  -4.312538  0.267449  8.918015  19.881756  16.504163  152.522816  12.563871  172.749206  -26.773525  42.744421  92.955813  59.766534  -5.906804  30.128393  7.929587  11.19706  1.330117  -126.31577  68.022431  163.222201  -24.804127  4.554751  -113.484491  77.902008  15.876724  16.517435  -27.647306  6.226562  5.572134  -20.773796  4.42903  4.468815  
0.0  89.887642  0.0  -1.761219  41.466311  -95.293167  -15.464658  -10.180496  -7.422934  -12.72586  4.837328  25.164341  5.452973  1.750466  4.307079  -35.30111  15.857404  7.480372  -11.815172  5.897274  6.58159  3.676869  1.062964  -0.444468  2.931398  -1.576588  0.153758  8.013141  -4.320786  0.228743  8.013142  -4.320786  0.228744  8.833792  19.782914  16.341785  152.588973  13.006122  172.928704  -26.377243  41.627371  93.389721  60.872729  -5.532175  30.285496  7.752776  11.036933  1.44365  -126.179428  68.094518  163.389878  -24.763017  4.476498  -113.440705  77.878368  15.850264  16.556765  -27.49178  6.209034  5.61632  -20.657693  4.415167  4.499503  
0.0  89.887642  0.0  -1.967033  40.774555  -95.348747  -15.156192  -10.543688  -7.356647  -12.402615  4.920882  25.270876  5.393041  1.752066  4.226202  -35.114061  15.740185  7.306461  -11.579755  5.825622  6.612694  3.67339  1.043255  -0.441029  2.982423  -1.575686  0.138379  8.153794  -4.316497  0.183486  8.153794  -4.316497  0.183486  8.634111  19.583741  16.045596  152.843835  13.679976  173.224548  -25.72238  40.588581  93.637603  61.975452  -5.285912  30.403148  7.747329  10.662085  1.584776  -126.860223  68.071402  163.147193  -24.688128  4.474261  -113.384232  77.911257  15.871562  16.693638  -27.438063  6.143202  5.652944  -20.617656  4.364476  4.523509  
0.0  89.887642  0.0  -2.108927  40.12392  -95.374578  -14.89665  -10.790253  -7.351811  -12.209509  4.973645  25.332489  5.470092  1.779743  4.232519  -34.919353  15.58431  7.143613  -11.396432  5.765096  6.617481  3.751513  1.044271  -0.440519  3.011247  -1.552652  0.135569  8.232684  -4.253317  0.176791  8.232685  -4.253317  0.176791  8.437192  19.370716  15.713588  152.833376  14.187648  173.433533  -25.247403  39.326698  94.010104  63.065865  -5.114874  30.550829  7.479007  10.364099  1.565794  -126.80331  68.2144  163.298796  -24.712131  4.441131  -113.333248  77.895795  15.82581  16.753079  -27.286855  5.977393  5.670081  -20.504042  4.240322  4.527442  
0.0  89.887642  0.0  -2.266353  39.426381  -95.38284  -13.652587  -11.268079  -7.041305  -12.766107  5.228581  24.941285  5.407204  1.761742  4.140838  -34.733891  15.459826  6.974453  -11.303015  5.71971  6.590556  3.900497  1.023733  -0.43656  3.069348  -1.532012  0.138681  8.391338  -4.19743  0.184164  8.391338  -4.19743  0.184163  8.207872  19.033897  15.262095  152.804958  14.811434  173.727908  -24.654461  38.178646  94.19211  64.132532  -4.876294  30.729827  7.335274  9.936407  1.587266  -127.415297  68.260365  163.182951  -24.693991  4.445778  -113.271426  77.900459  15.789629  16.79555  -27.289108  5.801299  5.638489  -20.50485  4.109299  4.495999  
0.0  89.887642  0.0  -2.387951  38.779961  -95.29286  -13.084675  -11.470472  -7.115225  -12.752561  5.191716  24.935761  5.433675  1.77618  4.140594  -34.647018  15.306056  6.71298  -10.992342  5.610026  6.590788  3.967501  1.029994  -0.424839  3.122133  -1.511281  0.13503  8.535861  -4.140434  0.173504  8.535861  -4.140434  0.173504  7.684819  18.896933  14.797956  152.821764  15.339093  173.943485  -24.147276  36.869421  94.596879  65.273772  -4.681665  30.857747  6.778987  9.731137  1.554505  -127.228382  68.436872  163.497271  -24.707848  4.404235  -113.1908  77.877618  15.732272  16.830275  -27.245526  5.60133  5.57678  -20.470915  3.962059  4.440417  
0.0  89.887642  0.0  -2.498744  38.271644  -95.155213  -12.123659  -11.726014  -7.061079  -13.065573  5.219321  24.749556  5.335663  1.727244  4.043601  -34.788884  15.250365  6.357344  -10.957462  5.448082  6.578449  4.218069  1.028696  -0.382823  3.211702  -1.474653  0.127803  8.781126  -4.039599  0.153009  8.781125  -4.039599  0.153009  6.802516  18.620668  14.271289  152.929488  16.067258  174.302686  -23.371211  35.738513  94.970945  66.505892  -4.491101  30.884035  6.044577  9.316226  1.579963  -127.580815  68.506306  163.562852  -24.709486  4.406808  -113.092144  77.882285  15.679748  16.904621  -27.469067  5.34037  5.514876  -20.636978  3.766714  4.384592  
0.0  89.887642  0.0  -2.613566  37.586553  -95.154389  -11.277899  -11.890179  -7.033723  -13.219138  5.14359  24.675832  5.327782  1.721952  4.038626  -34.653118  15.17699  6.125177  -10.591127  5.328039  6.646091  4.296177  1.030943  -0.342193  3.331836  -1.437538  0.148469  9.108328  -3.941222  0.207188  9.108328  -3.941222  0.207188  5.666296  18.413441  13.775689  153.008189  16.721831  174.629603  -22.80858  34.471797  95.485141  67.818756  -4.396922  30.933751  4.946563  8.967795  1.494784  -127.47807  68.720328  163.801401  -24.755299  4.4139  -112.979749  77.847768  15.610915  16.928477  -27.65923  5.020614  5.45212  -20.777808  3.527507  4.324987  
0.0  89.887642  0.0  -2.70521  36.972146  -95.189037  -10.277483  -12.034624  -6.847967  -13.511003  5.050179  24.488823  5.233118  1.682553  3.982051  -34.791149  15.167392  5.781681  -10.344398  5.242898  6.773372  4.596411  1.04855  -0.27668  3.485325  -1.359853  0.177183  9.526105  -3.733648  0.287576  9.526106  -3.733648  0.287576  4.168094  17.957765  13.184359  153.15563  17.602604  175.126506  -20.840705  33.521662  96.228905  69.357574  -4.934866  30.193099  3.804484  8.246486  1.445545  -127.923723  68.873235  163.796125  -24.755289  4.429181  -112.829709  77.833048  15.553006  16.885776  -28.033992  4.564574  5.462556  -21.057078  3.180949  4.315556  
0.0  89.887642  0.0  -2.833865  36.233108  -95.235125  -9.364559  -12.247133  -6.76533  -13.64097  4.979576  24.381282  5.20149  1.669803  3.978087  -34.498093  15.004958  5.529999  -10.084986  5.250707  6.977177  4.691663  1.050062  -0.22672  3.667089  -1.310248  0.197759  10.021973  -3.601905  0.340921  10.021974  -3.601905  0.340921  2.516707  17.686968  12.687025  153.213385  18.293558  175.478144  -20.489853  32.264696  96.711223  70.432936  -4.848763  30.417345  2.211106  7.766624  1.348318  -127.971347  69.242402  163.834231  -24.709855  4.387251  -112.662287  77.783831  15.480391  16.744993  -28.417196  4.182319  5.455399  -21.342697  2.890573  4.295779  
0.0  89.887642  0.0  -2.978597  35.452315  -95.197752  -8.54736  -12.468589  -6.815982  -13.689746  4.888984  24.316686  5.219354  1.656641  3.99044  -34.227349  14.740178  5.096777  -10.020397  5.283899  7.264456  4.967707  1.021473  -0.157073  3.867356  -1.257894  0.192467  10.569838  -3.458948  0.323875  10.569839  -3.458948  0.323875  0.708311  17.428382  12.205592  153.188934  18.999599  175.811336  -19.983763  31.249107  97.189586  71.484662  -4.872235  30.608924  0.770182  7.139826  1.430448  -128.576018  69.596667  163.576925  -24.571747  4.308393  -112.46976  77.770025  15.363217  16.524545  -28.940732  3.844929  5.488881  -21.73393  2.630796  4.309149  
0.0  89.887642  0.0  -3.140371  34.580626  -95.195482  -7.642977  -12.781755  -6.820417  -13.725837  4.866084  24.241121  5.20483  1.649496  3.992333  -33.723159  14.42552  4.73796  -9.80247  5.342064  7.605189  5.047689  1.032954  -0.097151  4.041888  -1.225655  0.184445  11.047503  -3.37022  0.298195  11.047503  -3.37022  0.298196  -0.842982  17.289701  11.806857  153.062756  19.671554  176.07406  -19.732438  30.371442  97.560732  72.392197  -4.920099  30.856687  -0.691437  6.695133  1.549427  -128.953058  70.080904  163.338071  -24.369827  4.090084  -112.277112  77.714183  15.254705  16.330468  -29.267098  3.538784  5.536112  -21.977463  2.395462  4.332455  
0.0  89.887642  0.0  -3.294866  33.842579  -95.139137  -7.215821  -12.999468  -6.947999  -13.486088  4.767063  24.315447  5.242213  1.653848  4.010811  -33.558793  14.141917  4.243388  -9.345392  5.390182  8.027322  5.089186  1.010887  -0.052021  4.096684  -1.170202  0.148556  11.198777  -3.213202  0.206923  11.198776  -3.213202  0.206923  -1.836646  17.041833  11.582551  152.918634  20.3533  176.340763  -19.44  29.727402  97.838259  73.139164  -5.009587  31.012036  -1.326021  6.023733  1.926174  -129.803888  70.499354  162.830049  -24.120525  3.861101  -112.062645  77.681627  15.178155  16.283528  -29.282231  3.264901  5.71183  -21.988455  2.180882  4.451651  
0.0  89.887642  0.0  -3.486959  33.011852  -95.151818  -6.628807  -13.336539  -6.934994  -13.339746  4.732324  24.274345  5.272659  1.660931  4.020307  -33.22427  13.858105  3.831434  -9.065641  5.406697  8.465485  5.173547  1.01781  -0.013469  4.143747  -1.163583  0.157067  11.327052  -3.19667  0.228961  11.327051  -3.19667  0.228961  -2.729048  17.045189  11.226388  152.712422  20.987325  176.634681  -19.29596  29.257741  97.979063  73.644309  -4.992165  31.231379  -2.069691  5.733496  2.185595  -130.294998  70.905131  162.527438  -23.98613  3.62931  -111.911792  77.678108  15.123907  16.30095  -29.215422  3.029866  5.675153  -21.93678  2.006454  4.412511  
0.0  89.887642  0.0  -3.658249  32.252996  -95.151407  -6.411516  -13.556997  -6.970315  -12.888669  4.625269  24.409526  5.267076  1.630267  3.976718  -33.268731  13.667223  3.322529  -8.563718  5.396667  8.921542  5.244903  0.994297  0.021424  4.093892  -1.180502  0.174408  11.189957  -3.245627  0.275798  11.189957  -3.245627  0.275798  -3.155962  17.158301  10.758923  152.416441  21.479042  176.844743  -18.957922  29.025902  98.062183  74.170287  -5.057252  31.118125  -1.988719  5.472454  2.535295  -131.504456  71.250046  161.787097  -23.92337  3.482029  -111.794484  77.697756  15.072134  16.246448  -28.751839  2.89211  5.626353  -21.588043  1.909309  4.366695  
0.0  89.887642  0.0  -3.824008  31.463019  -95.132423  -6.053234  -13.875646  -6.955533  -12.53974  4.5628  24.408166  5.298649  1.636082  3.986481  -33.220179  13.45203  2.873678  -8.061029  5.338858  9.333321  5.342383  1.007705  0.067317  4.018099  -1.249938  0.208275  10.981354  -3.44028  0.360371  10.981354  -3.44028  0.360371  -3.360386  17.63716  10.346553  152.119261  21.999934  177.063152  -19.264513  28.34545  98.199386  73.989622  -4.599226  31.243844  -2.063536  5.697904  2.782706  -132.210644  71.74294  161.232934  -23.909213  3.344364  -111.729336  77.698944  15.01116  16.028485  -28.261919  2.929237  5.363985  -21.219417  1.95376  4.168439  
